<?xml version="1.0" encoding="UTF-8" standalone="no"?>
<!DOCTYPE svg PUBLIC "-//W3C//DTD SVG 1.1//EN"
 "http://www.w3.org/Graphics/SVG/1.1/DTD/svg11.dtd">
<!-- Generated by graphviz version 2.38.0 (20140413.2041)
 -->
<!-- Title: %3 Pages: 1 -->
<svg width="4241pt" height="132pt"
 viewBox="0.00 0.00 4241.33 132.00" xmlns="http://www.w3.org/2000/svg" xmlns:xlink="http://www.w3.org/1999/xlink">
<g id="graph0" class="graph" transform="scale(1 1) rotate(0) translate(4 128)">
<title>%3</title>
<polygon fill="white" stroke="none" points="-4,4 -4,-128 4237.33,-128 4237.33,4 -4,4"/>
<!-- Rhttp://opendata.eurohelp.es/resource/Person/Alice&#45;McGregor -->
<g id="node1" class="node"><title>Rhttp://opendata.eurohelp.es/resource/Person/Alice&#45;McGregor</title>
<g id="a_node1"><a xlink:href="http://opendata.eurohelp.es/resource/Person/Alice-McGregor" xlink:title="http://opendata.eurohelp.es/resource/Person/Alice&#45;McGregor">
<ellipse fill="none" stroke="blue" cx="1124" cy="-106" rx="294.348" ry="18"/>
<text text-anchor="middle" x="1124" y="-102.3" font-family="Times,serif" font-size="14.00">http://opendata.eurohelp.es/resource/Person/Alice&#45;McGregor</text>
</a>
</g>
</g>
<!-- Rhttp://xmlns.com/foaf/0.1/Person -->
<g id="node2" class="node"><title>Rhttp://xmlns.com/foaf/0.1/Person</title>
<g id="a_node2"><a xlink:href="http://xmlns.com/foaf/0.1/Person" xlink:title="foaf:Person">
<ellipse fill="none" stroke="blue" cx="1747" cy="-18.5" rx="63.0888" ry="18"/>
<text text-anchor="middle" x="1747" y="-14.8" font-family="Times,serif" font-size="14.00">foaf:Person</text>
</a>
</g>
</g>
<!-- Rhttp://opendata.eurohelp.es/resource/Person/Alice&#45;McGregor&#45;&gt;Rhttp://xmlns.com/foaf/0.1/Person -->
<g id="edge1" class="edge"><title>Rhttp://opendata.eurohelp.es/resource/Person/Alice&#45;McGregor&#45;&gt;Rhttp://xmlns.com/foaf/0.1/Person</title>
<path fill="none" stroke="black" d="M1285.24,-90.9065C1395.57,-79.8454 1544.87,-62.0905 1675,-37 1680.45,-35.9497 1686.1,-34.7567 1691.74,-33.4988"/>
<polygon fill="black" stroke="black" points="1692.86,-36.8325 1701.82,-31.1814 1691.29,-30.0104 1692.86,-36.8325"/>
<text text-anchor="middle" x="1600" y="-58.8" font-family="Times,serif" font-size="14.00">rdf:type</text>
</g>
<!-- LThis description is about Alice McGregor -->
<g id="node3" class="node"><title>LThis description is about Alice McGregor</title>
<polygon fill="none" stroke="black" points="0,-0.5 0,-36.5 312,-36.5 312,-0.5 0,-0.5"/>
<text text-anchor="middle" x="156" y="-14.8" font-family="Times,serif" font-size="14.00">This description is about Alice McGregor</text>
</g>
<!-- Rhttp://opendata.eurohelp.es/resource/Person/Alice&#45;McGregor&#45;&gt;LThis description is about Alice McGregor -->
<g id="edge2" class="edge"><title>Rhttp://opendata.eurohelp.es/resource/Person/Alice&#45;McGregor&#45;&gt;LThis description is about Alice McGregor</title>
<path fill="none" stroke="black" d="M845.853,-100.069C655.964,-95.3143 421.91,-86.3435 325,-70 286.415,-63.4929 244.244,-50.8999 211.679,-39.9177"/>
<polygon fill="black" stroke="black" points="212.491,-36.4961 201.896,-36.5697 210.224,-43.119 212.491,-36.4961"/>
<text text-anchor="middle" x="375" y="-58.8" font-family="Times,serif" font-size="14.00">rdfs:comment</text>
</g>
<!-- LAlice -->
<g id="node4" class="node"><title>LAlice</title>
<polygon fill="none" stroke="black" points="330,-0.5 330,-36.5 384,-36.5 384,-0.5 330,-0.5"/>
<text text-anchor="middle" x="357" y="-14.8" font-family="Times,serif" font-size="14.00">Alice</text>
</g>
<!-- Rhttp://opendata.eurohelp.es/resource/Person/Alice&#45;McGregor&#45;&gt;LAlice -->
<g id="edge3" class="edge"><title>Rhttp://opendata.eurohelp.es/resource/Person/Alice&#45;McGregor&#45;&gt;LAlice</title>
<path fill="none" stroke="black" d="M847.159,-99.8036C702.137,-95.1619 540.383,-86.4189 470,-70 443.204,-63.7491 414.942,-51.1165 393.385,-40.0505"/>
<polygon fill="black" stroke="black" points="394.762,-36.8204 384.282,-35.2664 391.506,-43.0168 394.762,-36.8204"/>
<text text-anchor="middle" x="505.5" y="-58.8" font-family="Times,serif" font-size="14.00">foaf:name</text>
</g>
<!-- LMcGregor -->
<g id="node5" class="node"><title>LMcGregor</title>
<polygon fill="none" stroke="black" points="402,-0.5 402,-36.5 492,-36.5 492,-0.5 402,-0.5"/>
<text text-anchor="middle" x="447" y="-14.8" font-family="Times,serif" font-size="14.00">McGregor</text>
</g>
<!-- Rhttp://opendata.eurohelp.es/resource/Person/Alice&#45;McGregor&#45;&gt;LMcGregor -->
<g id="edge4" class="edge"><title>Rhttp://opendata.eurohelp.es/resource/Person/Alice&#45;McGregor&#45;&gt;LMcGregor</title>
<path fill="none" stroke="black" d="M848.317,-99.6368C767.735,-94.5609 679.867,-85.5879 600,-70 565.468,-63.2603 527.934,-50.9523 498.684,-40.1749"/>
<polygon fill="black" stroke="black" points="499.691,-36.8147 489.099,-36.5889 497.238,-43.3709 499.691,-36.8147"/>
</g>
<!-- LAli -->
<g id="node6" class="node"><title>LAli</title>
<polygon fill="none" stroke="black" points="510,-0.5 510,-36.5 564,-36.5 564,-0.5 510,-0.5"/>
<text text-anchor="middle" x="537" y="-14.8" font-family="Times,serif" font-size="14.00">Ali</text>
</g>
<!-- Rhttp://opendata.eurohelp.es/resource/Person/Alice&#45;McGregor&#45;&gt;LAli -->
<g id="edge5" class="edge"><title>Rhttp://opendata.eurohelp.es/resource/Person/Alice&#45;McGregor&#45;&gt;LAli</title>
<path fill="none" stroke="black" d="M883.291,-95.6215C787.18,-90.1768 688.606,-81.9654 643,-70 618.659,-63.6138 593.145,-51.6435 573.249,-40.9597"/>
<polygon fill="black" stroke="black" points="574.694,-37.7604 564.245,-36.0078 571.321,-43.8939 574.694,-37.7604"/>
<text text-anchor="middle" x="674.5" y="-58.8" font-family="Times,serif" font-size="14.00">foaf:nick</text>
</g>
<!-- L34 -->
<g id="node7" class="node"><title>L34</title>
<polygon fill="none" stroke="black" points="582,-0.5 582,-36.5 636,-36.5 636,-0.5 582,-0.5"/>
<text text-anchor="middle" x="609" y="-14.8" font-family="Times,serif" font-size="14.00">34</text>
</g>
<!-- Rhttp://opendata.eurohelp.es/resource/Person/Alice&#45;McGregor&#45;&gt;L34 -->
<g id="edge6" class="edge"><title>Rhttp://opendata.eurohelp.es/resource/Person/Alice&#45;McGregor&#45;&gt;L34</title>
<path fill="none" stroke="black" d="M964.718,-90.8386C912.702,-85.3738 854.757,-78.3907 802,-70 734.608,-59.2818 714.197,-60.0053 645.743,-36.8551"/>
<polygon fill="black" stroke="black" points="646.818,-33.5237 636.223,-33.5893 644.547,-40.145 646.818,-33.5237"/>
<text text-anchor="middle" x="831" y="-58.8" font-family="Times,serif" font-size="14.00">foaf:age</text>
</g>
<!-- Lhttps://www.londonali.uk -->
<g id="node8" class="node"><title>Lhttps://www.londonali.uk</title>
<polygon fill="none" stroke="black" points="654,-0.5 654,-36.5 848,-36.5 848,-0.5 654,-0.5"/>
<text text-anchor="middle" x="751" y="-14.8" font-family="Times,serif" font-size="14.00">https://www.londonali.uk</text>
</g>
<!-- Rhttp://opendata.eurohelp.es/resource/Person/Alice&#45;McGregor&#45;&gt;Lhttps://www.londonali.uk -->
<g id="edge7" class="edge"><title>Rhttp://opendata.eurohelp.es/resource/Person/Alice&#45;McGregor&#45;&gt;Lhttps://www.londonali.uk</title>
<path fill="none" stroke="black" d="M1016.57,-89.2134C984.978,-83.8833 950.459,-77.3843 919,-70 882.859,-61.5169 843.048,-49.6634 811.255,-39.5722"/>
<polygon fill="black" stroke="black" points="812.249,-36.2156 801.658,-36.5027 810.116,-42.8829 812.249,-36.2156"/>
<text text-anchor="middle" x="972" y="-58.8" font-family="Times,serif" font-size="14.00">foaf:homepage</text>
</g>
<!-- Lalicemc@londonali.uk -->
<g id="node9" class="node"><title>Lalicemc@londonali.uk</title>
<polygon fill="none" stroke="black" points="866,-0.5 866,-36.5 1040,-36.5 1040,-0.5 866,-0.5"/>
<text text-anchor="middle" x="953" y="-14.8" font-family="Times,serif" font-size="14.00">alicemc@londonali.uk</text>
</g>
<!-- Rhttp://opendata.eurohelp.es/resource/Person/Alice&#45;McGregor&#45;&gt;Lalicemc@londonali.uk -->
<g id="edge8" class="edge"><title>Rhttp://opendata.eurohelp.es/resource/Person/Alice&#45;McGregor&#45;&gt;Lalicemc@londonali.uk</title>
<path fill="none" stroke="black" d="M1090.22,-88.108C1063.25,-74.6263 1025.3,-55.649 996.139,-41.0696"/>
<polygon fill="black" stroke="black" points="997.516,-37.8448 987.006,-36.5031 994.385,-44.1058 997.516,-37.8448"/>
</g>
<!-- LFemale -->
<g id="node10" class="node"><title>LFemale</title>
<polygon fill="none" stroke="black" points="1058,-0.5 1058,-36.5 1126,-36.5 1126,-0.5 1058,-0.5"/>
<text text-anchor="middle" x="1092" y="-14.8" font-family="Times,serif" font-size="14.00">Female</text>
</g>
<!-- Rhttp://opendata.eurohelp.es/resource/Person/Alice&#45;McGregor&#45;&gt;LFemale -->
<g id="edge9" class="edge"><title>Rhttp://opendata.eurohelp.es/resource/Person/Alice&#45;McGregor&#45;&gt;LFemale</title>
<path fill="none" stroke="black" d="M1092.6,-88.0532C1086.32,-83.111 1080.56,-77.0916 1077,-70 1073.27,-62.5622 1074.08,-54.0311 1076.68,-46.1239"/>
<polygon fill="black" stroke="black" points="1079.91,-47.4785 1080.56,-36.9035 1073.46,-44.7658 1079.91,-47.4785"/>
<text text-anchor="middle" x="1118" y="-58.8" font-family="Times,serif" font-size="14.00">foaf:gender</text>
</g>
<!-- LYes -->
<g id="node11" class="node"><title>LYes</title>
<polygon fill="none" stroke="black" points="1144,-0.5 1144,-36.5 1198,-36.5 1198,-0.5 1144,-0.5"/>
<text text-anchor="middle" x="1171" y="-14.8" font-family="Times,serif" font-size="14.00">Yes</text>
</g>
<!-- Rhttp://opendata.eurohelp.es/resource/Person/Alice&#45;McGregor&#45;&gt;LYes -->
<g id="edge10" class="edge"><title>Rhttp://opendata.eurohelp.es/resource/Person/Alice&#45;McGregor&#45;&gt;LYes</title>
<path fill="none" stroke="black" d="M1145.04,-87.7316C1150.26,-82.5192 1155.4,-76.4522 1159,-70 1162.97,-62.8884 1165.63,-54.503 1167.42,-46.6298"/>
<polygon fill="black" stroke="black" points="1170.87,-47.2015 1169.29,-36.7252 1163.99,-45.9003 1170.87,-47.2015"/>
</g>
<!-- LParis -->
<g id="node12" class="node"><title>LParis</title>
<polygon fill="none" stroke="black" points="1216,-0.5 1216,-36.5 1270,-36.5 1270,-0.5 1216,-0.5"/>
<text text-anchor="middle" x="1243" y="-14.8" font-family="Times,serif" font-size="14.00">Paris</text>
</g>
<!-- Rhttp://opendata.eurohelp.es/resource/Person/Alice&#45;McGregor&#45;&gt;LParis -->
<g id="edge11" class="edge"><title>Rhttp://opendata.eurohelp.es/resource/Person/Alice&#45;McGregor&#45;&gt;LParis</title>
<path fill="none" stroke="black" d="M1150.66,-87.9101C1159.17,-82.3239 1168.55,-76.0088 1177,-70 1188.99,-61.4687 1201.9,-51.7188 1213.1,-43.0757"/>
<polygon fill="black" stroke="black" points="1215.53,-45.6182 1221.29,-36.7205 1211.24,-40.0893 1215.53,-45.6182"/>
<text text-anchor="middle" x="1247" y="-58.8" font-family="Times,serif" font-size="14.00">vcard:locality</text>
</g>
<!-- LBritish -->
<g id="node13" class="node"><title>LBritish</title>
<polygon fill="none" stroke="black" points="1288.5,-0.5 1288.5,-36.5 1353.5,-36.5 1353.5,-0.5 1288.5,-0.5"/>
<text text-anchor="middle" x="1321" y="-14.8" font-family="Times,serif" font-size="14.00">British</text>
</g>
<!-- Rhttp://opendata.eurohelp.es/resource/Person/Alice&#45;McGregor&#45;&gt;LBritish -->
<g id="edge12" class="edge"><title>Rhttp://opendata.eurohelp.es/resource/Person/Alice&#45;McGregor&#45;&gt;LBritish</title>
<path fill="none" stroke="black" d="M1244.61,-89.506C1269.04,-84.4378 1290.24,-77.9973 1300,-70 1307.36,-63.9656 1312.18,-54.9114 1315.32,-46.1286"/>
<polygon fill="black" stroke="black" points="1318.68,-47.0865 1318.19,-36.5032 1311.97,-45.0852 1318.68,-47.0865"/>
</g>
<!-- LLondon -->
<g id="node14" class="node"><title>LLondon</title>
<polygon fill="none" stroke="black" points="1372,-0.5 1372,-36.5 1442,-36.5 1442,-0.5 1372,-0.5"/>
<text text-anchor="middle" x="1407" y="-14.8" font-family="Times,serif" font-size="14.00">London</text>
</g>
<!-- Rhttp://opendata.eurohelp.es/resource/Person/Alice&#45;McGregor&#45;&gt;LLondon -->
<g id="edge13" class="edge"><title>Rhttp://opendata.eurohelp.es/resource/Person/Alice&#45;McGregor&#45;&gt;LLondon</title>
<path fill="none" stroke="black" d="M1247.81,-89.6588C1272.15,-84.7624 1297.2,-78.3565 1320,-70 1338.92,-63.0668 1358.45,-52.1275 1374.2,-42.2005"/>
<polygon fill="black" stroke="black" points="1376.51,-44.8775 1383.01,-36.5106 1372.71,-38.9981 1376.51,-44.8775"/>
</g>
<!-- LDesigner -->
<g id="node15" class="node"><title>LDesigner</title>
<polygon fill="none" stroke="black" points="1460.5,-0.5 1460.5,-36.5 1541.5,-36.5 1541.5,-0.5 1460.5,-0.5"/>
<text text-anchor="middle" x="1501" y="-14.8" font-family="Times,serif" font-size="14.00">Designer</text>
</g>
<!-- Rhttp://opendata.eurohelp.es/resource/Person/Alice&#45;McGregor&#45;&gt;LDesigner -->
<g id="edge14" class="edge"><title>Rhttp://opendata.eurohelp.es/resource/Person/Alice&#45;McGregor&#45;&gt;LDesigner</title>
<path fill="none" stroke="black" d="M1247.28,-89.6107C1280.81,-84.4206 1316.98,-77.8951 1350,-70 1393.06,-59.7034 1404.84,-53.0108 1450.72,-37.1087"/>
<polygon fill="black" stroke="black" points="1452.04,-40.3546 1460.37,-33.8017 1449.77,-33.7326 1452.04,-40.3546"/>
</g>
<!-- LToyota Prius -->
<g id="node16" class="node"><title>LToyota Prius</title>
<polygon fill="none" stroke="black" points="1560,-0.5 1560,-36.5 1666,-36.5 1666,-0.5 1560,-0.5"/>
<text text-anchor="middle" x="1613" y="-14.8" font-family="Times,serif" font-size="14.00">Toyota Prius</text>
</g>
<!-- Rhttp://opendata.eurohelp.es/resource/Person/Alice&#45;McGregor&#45;&gt;LToyota Prius -->
<g id="edge15" class="edge"><title>Rhttp://opendata.eurohelp.es/resource/Person/Alice&#45;McGregor&#45;&gt;LToyota Prius</title>
<path fill="none" stroke="black" d="M1253.83,-89.8339C1297.23,-84.2544 1345.79,-77.4572 1390,-70 1461.6,-57.9227 1479.42,-54.0596 1550,-37 1550.1,-36.9758 1550.2,-36.9516 1550.3,-36.9273"/>
<polygon fill="black" stroke="black" points="1550.94,-40.3756 1559.79,-34.5527 1549.24,-33.5849 1550.94,-40.3756"/>
</g>
<!-- Rhttp://dbpedia.org/resource/Bob_Marley -->
<g id="node17" class="node"><title>Rhttp://dbpedia.org/resource/Bob_Marley</title>
<g id="a_node17"><a xlink:href="http://dbpedia.org/resource/Bob_Marley" xlink:title="http://dbpedia.org/resource/Bob_Marley">
<ellipse fill="none" stroke="blue" cx="2026" cy="-18.5" rx="197.665" ry="18"/>
<text text-anchor="middle" x="2026" y="-14.8" font-family="Times,serif" font-size="14.00">http://dbpedia.org/resource/Bob_Marley</text>
</a>
</g>
</g>
<!-- Rhttp://opendata.eurohelp.es/resource/Person/Alice&#45;McGregor&#45;&gt;Rhttp://dbpedia.org/resource/Bob_Marley -->
<g id="edge16" class="edge"><title>Rhttp://opendata.eurohelp.es/resource/Person/Alice&#45;McGregor&#45;&gt;Rhttp://dbpedia.org/resource/Bob_Marley</title>
<path fill="none" stroke="black" d="M1334.11,-93.3534C1425.98,-87.5382 1534.93,-79.6638 1633,-70 1728.69,-60.5708 1837.04,-46.384 1915.7,-35.4456"/>
<polygon fill="black" stroke="black" points="1916.21,-38.9089 1925.63,-34.0605 1915.24,-31.976 1916.21,-38.9089"/>
<text text-anchor="middle" x="1802" y="-58.8" font-family="Times,serif" font-size="14.00">foaf:knows</text>
</g>
<!-- Rhttp://opendata.eurohelp.es/resource/Info/ -->
<g id="node18" class="node"><title>Rhttp://opendata.eurohelp.es/resource/Info/</title>
<g id="a_node18"><a xlink:href="http://opendata.eurohelp.es/resource/Info/" xlink:title="http://opendata.eurohelp.es/resource/Info/">
<ellipse fill="none" stroke="blue" cx="4026" cy="-106" rx="207.163" ry="18"/>
<text text-anchor="middle" x="4026" y="-102.3" font-family="Times,serif" font-size="14.00">http://opendata.eurohelp.es/resource/Info/</text>
</a>
</g>
</g>
<!-- LAll the data of this file has been created randomly -->
<g id="node19" class="node"><title>LAll the data of this file has been created randomly</title>
<polygon fill="none" stroke="black" points="3838.5,-0.5 3838.5,-36.5 4213.5,-36.5 4213.5,-0.5 3838.5,-0.5"/>
<text text-anchor="middle" x="4026" y="-14.8" font-family="Times,serif" font-size="14.00">All the data of this file has been created randomly</text>
</g>
<!-- Rhttp://opendata.eurohelp.es/resource/Info/&#45;&gt;LAll the data of this file has been created randomly -->
<g id="edge17" class="edge"><title>Rhttp://opendata.eurohelp.es/resource/Info/&#45;&gt;LAll the data of this file has been created randomly</title>
<path fill="none" stroke="black" d="M4026,-87.6978C4026,-75.993 4026,-60.2864 4026,-46.897"/>
<polygon fill="black" stroke="black" points="4029.5,-46.7764 4026,-36.7765 4022.5,-46.7765 4029.5,-46.7764"/>
<text text-anchor="middle" x="4076" y="-58.8" font-family="Times,serif" font-size="14.00">rdfs:comment</text>
</g>
<!-- Rhttp://opendata.eurohelp.es/resource/Person/Bob&#45;Johnson -->
<g id="node20" class="node"><title>Rhttp://opendata.eurohelp.es/resource/Person/Bob&#45;Johnson</title>
<g id="a_node20"><a xlink:href="http://opendata.eurohelp.es/resource/Person/Bob-Johnson" xlink:title="http://opendata.eurohelp.es/resource/Person/Bob&#45;Johnson">
<ellipse fill="none" stroke="blue" cx="2973" cy="-106" rx="278.351" ry="18"/>
<text text-anchor="middle" x="2973" y="-102.3" font-family="Times,serif" font-size="14.00">http://opendata.eurohelp.es/resource/Person/Bob&#45;Johnson</text>
</a>
</g>
</g>
<!-- Rhttp://opendata.eurohelp.es/resource/Person/Bob&#45;Johnson&#45;&gt;Rhttp://xmlns.com/foaf/0.1/Person -->
<g id="edge18" class="edge"><title>Rhttp://opendata.eurohelp.es/resource/Person/Bob&#45;Johnson&#45;&gt;Rhttp://xmlns.com/foaf/0.1/Person</title>
<path fill="none" stroke="black" d="M2734.83,-96.6521C2582.62,-90.7047 2381.1,-81.6955 2203,-70 2032.07,-58.7753 1988.05,-64.6421 1819,-37 1813.23,-36.0558 1807.23,-34.8947 1801.27,-33.6235"/>
<polygon fill="black" stroke="black" points="1801.86,-30.1677 1791.34,-31.3993 1800.33,-36.9988 1801.86,-30.1677"/>
<text text-anchor="middle" x="2232" y="-58.8" font-family="Times,serif" font-size="14.00">rdf:type</text>
</g>
<!-- Rhttp://opendata.eurohelp.es/resource/Person/Bob&#45;Johnson&#45;&gt;Rhttp://dbpedia.org/resource/Bob_Marley -->
<g id="edge33" class="edge"><title>Rhttp://opendata.eurohelp.es/resource/Person/Bob&#45;Johnson&#45;&gt;Rhttp://dbpedia.org/resource/Bob_Marley</title>
<path fill="none" stroke="black" d="M2743.57,-95.7829C2633.96,-90.2632 2501.02,-81.9455 2382,-70 2295.86,-61.3546 2198.58,-47.2563 2127.5,-36.15"/>
<polygon fill="black" stroke="black" points="2127.63,-32.6276 2117.21,-34.5341 2126.55,-39.5429 2127.63,-32.6276"/>
<text text-anchor="middle" x="2421" y="-58.8" font-family="Times,serif" font-size="14.00">foaf:knows</text>
</g>
<!-- LThis description is about Bob Johnson -->
<g id="node21" class="node"><title>LThis description is about Bob Johnson</title>
<polygon fill="none" stroke="black" points="2241.5,-0.5 2241.5,-36.5 2528.5,-36.5 2528.5,-0.5 2241.5,-0.5"/>
<text text-anchor="middle" x="2385" y="-14.8" font-family="Times,serif" font-size="14.00">This description is about Bob Johnson</text>
</g>
<!-- Rhttp://opendata.eurohelp.es/resource/Person/Bob&#45;Johnson&#45;&gt;LThis description is about Bob Johnson -->
<g id="edge19" class="edge"><title>Rhttp://opendata.eurohelp.es/resource/Person/Bob&#45;Johnson&#45;&gt;LThis description is about Bob Johnson</title>
<path fill="none" stroke="black" d="M2753.39,-94.9122C2656.96,-89.1494 2555.25,-80.8786 2509,-70 2481.16,-63.4511 2451.43,-51.5309 2428.07,-40.9157"/>
<polygon fill="black" stroke="black" points="2429.34,-37.6472 2418.79,-36.6199 2426.4,-43.9989 2429.34,-37.6472"/>
<text text-anchor="middle" x="2559" y="-58.8" font-family="Times,serif" font-size="14.00">rdfs:comment</text>
</g>
<!-- LBob -->
<g id="node22" class="node"><title>LBob</title>
<polygon fill="none" stroke="black" points="2547,-0.5 2547,-36.5 2601,-36.5 2601,-0.5 2547,-0.5"/>
<text text-anchor="middle" x="2574" y="-14.8" font-family="Times,serif" font-size="14.00">Bob</text>
</g>
<!-- Rhttp://opendata.eurohelp.es/resource/Person/Bob&#45;Johnson&#45;&gt;LBob -->
<g id="edge20" class="edge"><title>Rhttp://opendata.eurohelp.es/resource/Person/Bob&#45;Johnson&#45;&gt;LBob</title>
<path fill="none" stroke="black" d="M2774.02,-93.4183C2717.33,-88.094 2663.93,-80.5417 2638,-70 2623.23,-63.996 2609.06,-53.4966 2597.83,-43.6211"/>
<polygon fill="black" stroke="black" points="2599.94,-40.8023 2590.21,-36.6137 2595.2,-45.9569 2599.94,-40.8023"/>
<text text-anchor="middle" x="2673.5" y="-58.8" font-family="Times,serif" font-size="14.00">foaf:name</text>
</g>
<!-- LJohnson -->
<g id="node23" class="node"><title>LJohnson</title>
<polygon fill="none" stroke="black" points="2619,-0.5 2619,-36.5 2693,-36.5 2693,-0.5 2619,-0.5"/>
<text text-anchor="middle" x="2656" y="-14.8" font-family="Times,serif" font-size="14.00">Johnson</text>
</g>
<!-- Rhttp://opendata.eurohelp.es/resource/Person/Bob&#45;Johnson&#45;&gt;LJohnson -->
<g id="edge21" class="edge"><title>Rhttp://opendata.eurohelp.es/resource/Person/Bob&#45;Johnson&#45;&gt;LJohnson</title>
<path fill="none" stroke="black" d="M2828.22,-90.619C2800.49,-85.65 2772.01,-78.9719 2746,-70 2726.28,-63.1973 2705.88,-52.1357 2689.5,-42.0967"/>
<polygon fill="black" stroke="black" points="2691.17,-39.0137 2680.84,-36.6581 2687.45,-44.9413 2691.17,-39.0137"/>
</g>
<!-- LBobby -->
<g id="node24" class="node"><title>LBobby</title>
<polygon fill="none" stroke="black" points="2711,-0.5 2711,-36.5 2773,-36.5 2773,-0.5 2711,-0.5"/>
<text text-anchor="middle" x="2742" y="-14.8" font-family="Times,serif" font-size="14.00">Bobby</text>
</g>
<!-- Rhttp://opendata.eurohelp.es/resource/Person/Bob&#45;Johnson&#45;&gt;LBobby -->
<g id="edge22" class="edge"><title>Rhttp://opendata.eurohelp.es/resource/Person/Bob&#45;Johnson&#45;&gt;LBobby</title>
<path fill="none" stroke="black" d="M2822.48,-90.8108C2795.25,-85.776 2771.99,-79.023 2761,-70 2753.82,-64.1053 2749.35,-55.1974 2746.57,-46.4962"/>
<polygon fill="black" stroke="black" points="2749.9,-45.3848 2744.02,-36.5696 2743.12,-47.1259 2749.9,-45.3848"/>
<text text-anchor="middle" x="2792.5" y="-58.8" font-family="Times,serif" font-size="14.00">foaf:nick</text>
</g>
<!-- L63 -->
<g id="node25" class="node"><title>L63</title>
<polygon fill="none" stroke="black" points="2791,-0.5 2791,-36.5 2845,-36.5 2845,-0.5 2791,-0.5"/>
<text text-anchor="middle" x="2818" y="-14.8" font-family="Times,serif" font-size="14.00">63</text>
</g>
<!-- Rhttp://opendata.eurohelp.es/resource/Person/Bob&#45;Johnson&#45;&gt;L63 -->
<g id="edge23" class="edge"><title>Rhttp://opendata.eurohelp.es/resource/Person/Bob&#45;Johnson&#45;&gt;L63</title>
<path fill="none" stroke="black" d="M2869.4,-89.2C2857.96,-84.3604 2847.16,-78.0963 2838,-70 2831.09,-63.8964 2826.54,-55.0912 2823.56,-46.5373"/>
<polygon fill="black" stroke="black" points="2826.88,-45.4151 2820.73,-36.7882 2820.16,-47.3676 2826.88,-45.4151"/>
<text text-anchor="middle" x="2867" y="-58.8" font-family="Times,serif" font-size="14.00">foaf:age</text>
</g>
<!-- L -->
<g id="node26" class="node"><title>L</title>
<polygon fill="none" stroke="black" points="2863,-0.5 2863,-36.5 2917,-36.5 2917,-0.5 2863,-0.5"/>
<text text-anchor="middle" x="2890" y="-14.8" font-family="Times,serif" font-size="14.00"> </text>
</g>
<!-- Rhttp://opendata.eurohelp.es/resource/Person/Bob&#45;Johnson&#45;&gt;L -->
<g id="edge24" class="edge"><title>Rhttp://opendata.eurohelp.es/resource/Person/Bob&#45;Johnson&#45;&gt;L</title>
<path fill="none" stroke="black" d="M2931.6,-88.0066C2923.3,-83.1447 2915.23,-77.1713 2909,-70 2903.15,-63.2623 2899.02,-54.5458 2896.14,-46.2565"/>
<polygon fill="black" stroke="black" points="2899.45,-45.0921 2893.22,-36.5187 2892.74,-47.1027 2899.45,-45.0921"/>
<text text-anchor="middle" x="2962" y="-58.8" font-family="Times,serif" font-size="14.00">foaf:homepage</text>
</g>
<!-- Lbobjohnson25@bobby.com -->
<g id="node27" class="node"><title>Lbobjohnson25@bobby.com</title>
<polygon fill="none" stroke="black" points="2935,-0.5 2935,-36.5 3141,-36.5 3141,-0.5 2935,-0.5"/>
<text text-anchor="middle" x="3038" y="-14.8" font-family="Times,serif" font-size="14.00">bobjohnson25@bobby.com</text>
</g>
<!-- Rhttp://opendata.eurohelp.es/resource/Person/Bob&#45;Johnson&#45;&gt;Lbobjohnson25@bobby.com -->
<g id="edge25" class="edge"><title>Rhttp://opendata.eurohelp.es/resource/Person/Bob&#45;Johnson&#45;&gt;Lbobjohnson25@bobby.com</title>
<path fill="none" stroke="black" d="M3000.57,-87.9875C3007.28,-82.8528 3013.97,-76.7606 3019,-70 3024.25,-62.9496 3028.2,-54.2821 3031.11,-46.1306"/>
<polygon fill="black" stroke="black" points="3034.45,-47.1771 3034.14,-36.5866 3027.78,-45.0552 3034.45,-47.1771"/>
</g>
<!-- LMale -->
<g id="node28" class="node"><title>LMale</title>
<polygon fill="none" stroke="black" points="3159,-0.5 3159,-36.5 3213,-36.5 3213,-0.5 3159,-0.5"/>
<text text-anchor="middle" x="3186" y="-14.8" font-family="Times,serif" font-size="14.00">Male</text>
</g>
<!-- Rhttp://opendata.eurohelp.es/resource/Person/Bob&#45;Johnson&#45;&gt;LMale -->
<g id="edge26" class="edge"><title>Rhttp://opendata.eurohelp.es/resource/Person/Bob&#45;Johnson&#45;&gt;LMale</title>
<path fill="none" stroke="black" d="M3020.02,-88.1828C3053.84,-75.8055 3100.64,-58.1037 3149.79,-36.9311"/>
<polygon fill="black" stroke="black" points="3151.21,-40.1297 3158.99,-32.9378 3148.42,-33.7084 3151.21,-40.1297"/>
<text text-anchor="middle" x="3148" y="-58.8" font-family="Times,serif" font-size="14.00">foaf:gender</text>
</g>
<!-- LNo -->
<g id="node29" class="node"><title>LNo</title>
<polygon fill="none" stroke="black" points="3231,-0.5 3231,-36.5 3285,-36.5 3285,-0.5 3231,-0.5"/>
<text text-anchor="middle" x="3258" y="-14.8" font-family="Times,serif" font-size="14.00">No</text>
</g>
<!-- Rhttp://opendata.eurohelp.es/resource/Person/Bob&#45;Johnson&#45;&gt;LNo -->
<g id="edge27" class="edge"><title>Rhttp://opendata.eurohelp.es/resource/Person/Bob&#45;Johnson&#45;&gt;LNo</title>
<path fill="none" stroke="black" d="M3125.85,-90.9104C3148.9,-85.8871 3171.98,-79.116 3193,-70 3207.66,-63.6413 3221.92,-53.1987 3233.33,-43.4547"/>
<polygon fill="black" stroke="black" points="3235.95,-45.8105 3241.1,-36.5514 3231.3,-40.5781 3235.95,-45.8105"/>
</g>
<!-- LNew York -->
<g id="node30" class="node"><title>LNew York</title>
<polygon fill="none" stroke="black" points="3303,-0.5 3303,-36.5 3389,-36.5 3389,-0.5 3303,-0.5"/>
<text text-anchor="middle" x="3346" y="-14.8" font-family="Times,serif" font-size="14.00">New York</text>
</g>
<!-- Rhttp://opendata.eurohelp.es/resource/Person/Bob&#45;Johnson&#45;&gt;LNew York -->
<g id="edge28" class="edge"><title>Rhttp://opendata.eurohelp.es/resource/Person/Bob&#45;Johnson&#45;&gt;LNew York</title>
<path fill="none" stroke="black" d="M3116.87,-90.5549C3151,-85.4985 3187.05,-78.8004 3220,-70 3247.52,-62.6514 3277.13,-50.9871 3300.73,-40.7192"/>
<polygon fill="black" stroke="black" points="3302.39,-43.8126 3310.12,-36.5696 3299.56,-37.4097 3302.39,-43.8126"/>
<text text-anchor="middle" x="3312" y="-58.8" font-family="Times,serif" font-size="14.00">vcard:locality</text>
</g>
<!-- LGerman -->
<g id="node31" class="node"><title>LGerman</title>
<polygon fill="none" stroke="black" points="3407,-0.5 3407,-36.5 3481,-36.5 3481,-0.5 3407,-0.5"/>
<text text-anchor="middle" x="3444" y="-14.8" font-family="Times,serif" font-size="14.00">German</text>
</g>
<!-- Rhttp://opendata.eurohelp.es/resource/Person/Bob&#45;Johnson&#45;&gt;LGerman -->
<g id="edge29" class="edge"><title>Rhttp://opendata.eurohelp.es/resource/Person/Bob&#45;Johnson&#45;&gt;LGerman</title>
<path fill="none" stroke="black" d="M3189.48,-94.6571C3261.4,-89.2902 3331.62,-81.3938 3365,-70 3382.86,-63.904 3400.75,-52.9719 3414.97,-42.8344"/>
<polygon fill="black" stroke="black" points="3417.35,-45.4276 3423.32,-36.6753 3413.2,-39.794 3417.35,-45.4276"/>
</g>
<!-- LBerlin -->
<g id="node32" class="node"><title>LBerlin</title>
<polygon fill="none" stroke="black" points="3499,-0.5 3499,-36.5 3559,-36.5 3559,-0.5 3499,-0.5"/>
<text text-anchor="middle" x="3529" y="-14.8" font-family="Times,serif" font-size="14.00">Berlin</text>
</g>
<!-- Rhttp://opendata.eurohelp.es/resource/Person/Bob&#45;Johnson&#45;&gt;LBerlin -->
<g id="edge30" class="edge"><title>Rhttp://opendata.eurohelp.es/resource/Person/Bob&#45;Johnson&#45;&gt;LBerlin</title>
<path fill="none" stroke="black" d="M3206.42,-96.1689C3268.19,-90.9721 3334.5,-82.8038 3395,-70 3427.93,-63.0322 3463.5,-49.312 3489.72,-37.9292"/>
<polygon fill="black" stroke="black" points="3491.2,-41.1016 3498.93,-33.8581 3488.37,-34.699 3491.2,-41.1016"/>
</g>
<!-- LLawyer -->
<g id="node33" class="node"><title>LLawyer</title>
<polygon fill="none" stroke="black" points="3577,-0.5 3577,-36.5 3647,-36.5 3647,-0.5 3577,-0.5"/>
<text text-anchor="middle" x="3612" y="-14.8" font-family="Times,serif" font-size="14.00">Lawyer</text>
</g>
<!-- Rhttp://opendata.eurohelp.es/resource/Person/Bob&#45;Johnson&#45;&gt;LLawyer -->
<g id="edge31" class="edge"><title>Rhttp://opendata.eurohelp.es/resource/Person/Bob&#45;Johnson&#45;&gt;LLawyer</title>
<path fill="none" stroke="black" d="M3198.09,-95.3982C3273.41,-90.198 3357.62,-82.2187 3434,-70 3491.49,-60.8038 3507.95,-56.1914 3566.79,-37.2284"/>
<polygon fill="black" stroke="black" points="3568.17,-40.4611 3576.61,-34.0588 3566.02,-33.7995 3568.17,-40.4611"/>
</g>
<!-- LMercedes CLK 320 -->
<g id="node34" class="node"><title>LMercedes CLK 320</title>
<polygon fill="none" stroke="black" points="3665.5,-0.5 3665.5,-36.5 3820.5,-36.5 3820.5,-0.5 3665.5,-0.5"/>
<text text-anchor="middle" x="3743" y="-14.8" font-family="Times,serif" font-size="14.00">Mercedes CLK 320</text>
</g>
<!-- Rhttp://opendata.eurohelp.es/resource/Person/Bob&#45;Johnson&#45;&gt;LMercedes CLK 320 -->
<g id="edge32" class="edge"><title>Rhttp://opendata.eurohelp.es/resource/Person/Bob&#45;Johnson&#45;&gt;LMercedes CLK 320</title>
<path fill="none" stroke="black" d="M3199.93,-95.5661C3289.32,-90.2719 3392.73,-82.1876 3486,-70 3559.19,-60.4372 3578.91,-52.5903 3655.12,-37.1911"/>
<polygon fill="black" stroke="black" points="3656.1,-40.5651 3665.22,-35.1731 3654.73,-33.7008 3656.1,-40.5651"/>
</g>
</g>
</svg>
